<svg aria-hidden="true" style="position:absolute;width:32;height:32" xmlns="http://www.w3.org/2000/svg" overflow="hidden"><defs><symbol id="icon-star-full" viewBox="0 0 32 32"><path d="M32 12.408l-11.056-1.607L16 .783l-4.944 10.018L0 12.408l8 7.798-1.889 11.011L16 26.018l9.889 5.199L24 20.206l8-7.798z"/></symbol><symbol id="icon-star-half" viewBox="0 0 32 32"><path d="M32 12.408l-11.056-1.607L16 .783l-4.944 10.018L0 12.408l8 7.798-1.889 11.011L16 26.018l9.889 5.199L24 20.206l8-7.798zM16 23.547l-.029.015L16 5.725l3.492 7.075 7.807 1.134-5.65 5.507 1.334 7.776L16 23.546z"/></symbol><symbol id="icon-home2" viewBox="0 0 32 32"><path d="M16 1L0 17l3 3 3-3v13h8v-6h4v6h8V17l3 3 3-3L16 1zm0 13a2 2 0 1 1-.001-3.999A2 2 0 0 1 16 14z"/></symbol><symbol id="icon-camera" viewBox="0 0 32 32"><path d="M9.5 19a6.5 6.5 0 1 0 13 0 6.5 6.5 0 0 0-13 0zM30 8h-7c-.5-2-1-4-3-4h-8c-2 0-2.5 2-3 4H2c-1.1 0-2 .9-2 2v18c0 1.1.9 2 2 2h28c1.1 0 2-.9 2-2V10c0-1.1-.9-2-2-2zM16 27.875c-4.902 0-8.875-3.973-8.875-8.875s3.973-8.875 8.875-8.875 8.875 3.973 8.875 8.875-3.973 8.875-8.875 8.875zM30 14h-4v-2h4v2z"/></symbol><symbol id="icon-book" viewBox="0 0 32 32"><path d="M28 4v26H7a3 3 0 1 1 0-6h19V0H6C3.8 0 2 1.8 2 4v24c0 2.2 1.8 4 4 4h24V4h-2z"/><path d="M7.002 26H7a1 1 0 0 0 0 2h18.999v-2H7.002z"/></symbol><symbol id="icon-credit-card" viewBox="0 0 32 32"><path d="M29 4H3C1.35 4 0 5.35 0 7v18c0 1.65 1.35 3 3 3h26c1.65 0 3-1.35 3-3V7c0-1.65-1.35-3-3-3zM3 6h26c.542 0 1 .458 1 1v3H2V7c0-.542.458-1 1-1zm26 20H3c-.542 0-1-.458-1-1v-9h28v9c0 .542-.458 1-1 1zM4 20h2v4H4zm4 0h2v4H8zm4 0h2v4h-2z"/></symbol><symbol id="icon-phone" viewBox="0 0 32 32"><path d="M22 20c-2 2-2 4-4 4s-4-2-6-4-4-4-4-6 2-2 4-4-4-8-6-8-6 6-6 6c0 4 4.109 12.109 8 16s12 8 16 8c0 0 6-4 6-6s-6-8-8-6z"/></symbol><symbol id="icon-location2" viewBox="0 0 32 32"><path d="M16 0C10.477 0 6 4.477 6 10c0 10 10 22 10 22s10-12 10-22c0-5.523-4.477-10-10-10zm0 16.125a6.125 6.125 0 1 1 0-12.25 6.125 6.125 0 0 1 0 12.25zM12.125 10a3.875 3.875 0 1 1 7.75 0 3.875 3.875 0 0 1-7.75 0z"/></symbol><symbol id="icon-map" viewBox="0 0 32 32"><path d="M0 6l10-4v24L0 30zm12-5l10 6v23l-10-5zm12 6l8-6v24l-8 6z"/></symbol><symbol id="icon-alarm" viewBox="0 0 32 32"><path d="M16 4C8.268 4 2 10.268 2 18s6.268 14 14 14 14-6.268 14-14S23.732 4 16 4zm0 25.25C9.787 29.25 4.75 24.213 4.75 18S9.787 6.75 16 6.75 27.25 11.787 27.25 18 22.213 29.25 16 29.25zM29.212 8.974a6 6 0 0 0-9.959-6.643 16.011 16.011 0 0 1 9.96 6.643zM12.748 2.331a6 6 0 1 0-9.96 6.643 16.008 16.008 0 0 1 9.96-6.643z"/><path d="M16 18v-8h-2v10h8v-2z"/></symbol><symbol id="icon-heart" viewBox="0 0 32 32"><path d="M23.6 2c-3.363 0-6.258 2.736-7.599 5.594C14.659 4.736 11.764 2 8.4 2 3.763 2 0 5.764 0 10.401c0 9.433 9.516 11.906 16.001 21.232C22.131 22.365 32 19.533 32 10.401 32 5.764 28.237 2 23.6 2z"/></symbol><symbol id="icon-bell" viewBox="0 0 32 32"><path d="M32.047 25c0-9-8-7-8-14 0-.58-.056-1.076-.158-1.498-.526-3.532-2.88-6.366-5.93-7.23.027-.123.041-.251.041-.382 0-1.04-.9-1.891-2-1.891S14 .85 14 1.89c0 .131.014.258.041.382-3.421.969-5.966 4.416-6.039 8.545L8 11c0 7-8 5-8 14 0 2.382 5.331 4.375 12.468 4.878a3.998 3.998 0 0 0 7.064 0C26.669 29.375 32 27.383 32 25l-.001-.021.048.021zm-6.227 1.691c-1.695.452-3.692.777-5.837.958a4 4 0 0 0-7.968 0c-2.144-.18-4.142-.506-5.837-.958-2.332-.622-3.447-1.318-3.855-1.691.408-.372 1.523-1.068 3.855-1.691 2.712-.724 6.199-1.122 9.82-1.122s7.109.398 9.82 1.122c2.332.622 3.447 1.318 3.855 1.691-.408.372-1.523 1.068-3.855 1.691z"/></symbol><symbol id="icon-calendar" viewBox="0 0 32 32"><path d="M10 12h4v4h-4zm6 0h4v4h-4zm6 0h4v4h-4zM4 24h4v4H4zm6 0h4v4h-4zm6 0h4v4h-4zm-6-6h4v4h-4zm6 0h4v4h-4zm6 0h4v4h-4zM4 18h4v4H4zM26 0v2h-4V0H8v2H4V0H0v32h30V0h-4zm2 30H2V8h26v22z"/></symbol><symbol id="icon-bubble" viewBox="0 0 32 32"><path d="M16 2c8.837 0 16 5.82 16 13s-7.163 13-16 13a19.66 19.66 0 0 1-2.495-.158C10.068 31.279 5.966 31.895 2 31.986v-.841C4.142 30.096 6 28.184 6 26c0-.305-.024-.604-.068-.897C2.313 22.72 0 19.079 0 15 0 7.82 7.163 2 16 2z"/></symbol><symbol id="icon-bubbles" viewBox="0 0 36 32"><path d="M34 28.161a3.65 3.65 0 0 0 2 3.256v.498a7.42 7.42 0 0 1-6.414-2.251c-.819.218-1.688.336-2.587.336-4.971 0-9-3.582-9-8s4.029-8 9-8 9 3.582 9 8c0 1.73-.618 3.331-1.667 4.64a3.635 3.635 0 0 0-.333 1.522zM16 0c8.702 0 15.781 5.644 15.995 12.672A12.262 12.262 0 0 0 27 11.625c-2.986 0-5.807 1.045-7.942 2.943-2.214 1.968-3.433 4.607-3.433 7.432 0 1.396.298 2.747.867 3.993a19.66 19.66 0 0 1-2.987-.151C10.068 29.279 5.966 29.895 2 29.986v-.841C4.142 28.096 6 26.184 6 24c0-.305-.024-.604-.068-.897C2.313 20.72 0 17.079 0 13 0 5.82 7.163 0 16 0z"/></symbol><symbol id="icon-quotes-left" viewBox="0 0 32 32"><path d="M7.031 14a7 7 0 1 1-7 7L0 20C0 12.268 6.268 6 14 6v4a9.934 9.934 0 0 0-7.071 2.929 10.24 10.24 0 0 0-.995 1.157A7.081 7.081 0 0 1 7.031 14zm18 0a7 7 0 1 1-7 7L18 20c0-7.732 6.268-14 14-14v4a9.934 9.934 0 0 0-7.071 2.929 10.24 10.24 0 0 0-.995 1.157A7.09 7.09 0 0 1 25.031 14z"/></symbol><symbol id="icon-quotes-right" viewBox="0 0 32 32"><path d="M25 20a7 7 0 1 1 7-7l.031 1c0 7.732-6.268 14-14 14v-4a9.934 9.934 0 0 0 7.071-2.929c.364-.364.695-.75.995-1.157A7.081 7.081 0 0 1 25 20zM7 20a7 7 0 1 1 7-7l.031 1c0 7.732-6.268 14-14 14v-4a9.934 9.934 0 0 0 7.071-2.929c.364-.364.695-.75.995-1.157A7.081 7.081 0 0 1 7 20z"/></symbol><symbol id="icon-magnifying-glass" viewBox="0 0 20 20"><path d="M17.545 15.467l-3.779-3.779a6.15 6.15 0 0 0 .898-3.21c0-3.417-2.961-6.377-6.378-6.377S2.1 4.87 2.1 8.287c0 3.416 2.961 6.377 6.377 6.377a6.15 6.15 0 0 0 3.115-.844l3.799 3.801a.953.953 0 0 0 1.346 0l.943-.943c.371-.371.236-.84-.135-1.211zM4.004 8.287c0-2.366 1.917-4.283 4.282-4.283s4.474 2.107 4.474 4.474c0 2.365-1.918 4.283-4.283 4.283s-4.473-2.109-4.473-4.474z"/></symbol><symbol id="icon-key" viewBox="0 0 32 32"><path d="M22 0c-5.523 0-10 4.477-10 10 0 .626.058 1.238.168 1.832L0 24v6a2 2 0 0 0 2 2h2v-2h4v-4h4v-4h4l2.595-2.595A9.977 9.977 0 0 0 22 20c5.523 0 10-4.477 10-10S27.523 0 22 0zm2.996 10.004a3 3 0 1 1 0-6 3 3 0 0 1 0 6z"/></symbol><symbol id="icon-bookmark" viewBox="0 0 32 32"><path d="M14 2v17l-4-4-4 4V2c0-.553.585-1.02 1-1h6c.689-.02 1 .447 1 1z"/></symbol><symbol id="icon-glass" viewBox="0 0 32 32"><path d="M24.306.527A1.001 1.001 0 0 0 23.425 0H8.575a1 1 0 0 0-.881.527C6.586 2.59 6 5.001 6 7.5c0 3.294 1.012 6.401 2.849 8.748 1.42 1.814 3.203 3.017 5.151 3.505V30h-3a1 1 0 0 0 0 2h10a1 1 0 0 0 0-2h-3V19.753c1.949-.488 3.732-1.691 5.151-3.505C24.988 13.901 26 10.794 26 7.5c0-2.499-.586-4.91-1.694-6.973zM9.191 2H22.81c.78 1.653 1.191 3.542 1.191 5.5 0 .168-.003.334-.009.5H8.011a13.814 13.814 0 0 1-.009-.5c0-1.958.41-3.847 1.191-5.5z"/></symbol><symbol id="icon-mug" viewBox="0 0 32 32"><path d="M30 10h-6V7c0-2.761-5.373-5-12-5S0 4.239 0 7v20c0 2.761 5.373 5 12 5s12-2.239 12-5v-3h6a2 2 0 0 0 2-2V12a2 2 0 0 0-2-2zM5.502 8.075C4.346 7.694 3.645 7.286 3.27 7c.375-.286 1.075-.694 2.232-1.075C7.313 5.328 9.62 5 12 5s4.688.329 6.498.925c1.156.381 1.857.789 2.232 1.075-.375.286-1.076.694-2.232 1.075C16.687 8.672 14.38 9 12 9s-4.688-.329-6.498-.925zM28 20h-4v-6h4v6z"/></symbol><symbol id="icon-spoon-knife" viewBox="0 0 32 32"><path d="M7 0C3.686 0 1 3.134 1 7c0 3.31 1.969 6.083 4.616 6.812l-.993 16.191a1.863 1.863 0 0 0 1.878 1.996h1c1.1 0 1.945-.898 1.878-1.996l-.993-16.191c2.646-.729 4.616-3.502 4.616-6.812 0-3.866-2.686-7-6-7zm20.167 0L25.5 10h-1.25l-.833-10h-.833l-.833 10h-1.25L18.834 0h-.833v13a1 1 0 0 0 1 1h2.604l-.982 16.004A1.863 1.863 0 0 0 22.501 32h1c1.1 0 1.945-.898 1.878-1.996L24.397 14h2.604a1 1 0 0 0 1-1V0h-.833z"/></symbol><symbol id="icon-airplane" viewBox="0 0 32 32"><path d="M24 19.999l-5.713-5.713L32 4l-4-4-17.141 6.858-5.397-5.397C3.906-.095 1.734-.467.634.633s-.727 3.273.828 4.828l5.396 5.396L0 28l4 4 10.287-13.715L20 23.998v7.999h4l2-6 6-2v-4h-7.999z"/></symbol><symbol id="icon-checkmark" viewBox="0 0 32 32"><path d="M27 4L12 19l-7-7-5 5 12 12L32 9z"/></symbol><symbol id="icon-checkmark2" viewBox="0 0 32 32"><path d="M12.42 28.678L-.013 16.44l6.168-6.071 6.265 6.167L25.846 3.322l6.168 6.071L12.42 28.678zM3.372 16.441l9.048 8.905L28.628 9.393l-2.782-2.739L12.42 19.868l-6.265-6.167-2.782 2.739z"/></symbol><symbol id="icon-aircraft" viewBox="0 0 20 20"><path d="M12.496 17.414c-.394-1.096-1.805-4.775-2.39-6.297-1.103.737-2.334 1.435-3.512 1.928-.366 1.28-1.094 3.709-1.446 4.033-.604.557-.832.485-.925-.279s-.485-3.236-.485-3.236-2.162-1.219-2.84-1.568-.667-.591.057-.974c.422-.223 2.927-.085 4.242.005.861-.951 1.931-1.882 2.993-2.679-1.215-1.076-4.15-3.675-5.034-4.424-.776-.658.079-.797.079-.797.39-.07 1.222-.132 1.628-.009 2.524.763 6.442 2.068 7.363 2.376l1.162-.821c4.702-3.33 5.887-2.593 6.111-2.27s.503 1.701-4.199 5.032l-1.16.823c-.029.98-.157 5.151-.311 7.811-.025.428-.367 1.198-.565 1.544-.001 0-.423.765-.768-.198z"/></symbol><symbol id="icon-google-plus2" viewBox="0 0 32 32"><path d="M29 0H3C1.35 0 0 1.35 0 3v26c0 1.65 1.35 3 3 3h26c1.65 0 3-1.35 3-3V3c0-1.65-1.35-3-3-3zM12 24c-4.425 0-8-3.575-8-8s3.575-8 8-8c2.162 0 3.969.787 5.363 2.094l-2.175 2.088c-.594-.569-1.631-1.231-3.188-1.231-2.731 0-4.963 2.263-4.963 5.05s2.231 5.05 4.963 5.05c3.169 0 4.356-2.275 4.538-3.45h-4.537v-2.744h7.556c.069.4.125.8.125 1.325 0 4.575-3.063 7.819-7.681 7.819zm16-8h-2v2h-2v-2h-2v-2h2v-2h2v2h2v2z"/></symbol><symbol id="icon-facebook2" viewBox="0 0 32 32"><path d="M29 0H3C1.35 0 0 1.35 0 3v26c0 1.65 1.35 3 3 3h13V18h-4v-4h4v-2c0-3.306 2.694-6 6-6h4v4h-4c-1.1 0-2 .9-2 2v2h6l-1 4h-5v14h9c1.65 0 3-1.35 3-3V3c0-1.65-1.35-3-3-3z"/></symbol><symbol id="icon-instagram" viewBox="0 0 32 32"><path d="M16 2.881c4.275 0 4.781.019 6.462.094 1.563.069 2.406.331 2.969.55a4.952 4.952 0 0 1 1.837 1.194 5.015 5.015 0 0 1 1.2 1.838c.219.563.481 1.412.55 2.969.075 1.688.094 2.194.094 6.463s-.019 4.781-.094 6.463c-.069 1.563-.331 2.406-.55 2.969a4.94 4.94 0 0 1-1.194 1.837 5.02 5.02 0 0 1-1.837 1.2c-.563.219-1.413.481-2.969.55-1.688.075-2.194.094-6.463.094s-4.781-.019-6.463-.094c-1.563-.069-2.406-.331-2.969-.55a4.952 4.952 0 0 1-1.838-1.194 5.02 5.02 0 0 1-1.2-1.837c-.219-.563-.481-1.413-.55-2.969-.075-1.688-.094-2.194-.094-6.463s.019-4.781.094-6.463c.069-1.563.331-2.406.55-2.969a4.964 4.964 0 0 1 1.194-1.838 5.015 5.015 0 0 1 1.838-1.2c.563-.219 1.412-.481 2.969-.55 1.681-.075 2.188-.094 6.463-.094zM16 0c-4.344 0-4.887.019-6.594.094-1.7.075-2.869.35-3.881.744-1.056.412-1.95.956-2.837 1.85a7.833 7.833 0 0 0-1.85 2.831C.444 6.538.169 7.7.094 9.4.019 11.113 0 11.656 0 16s.019 4.887.094 6.594c.075 1.7.35 2.869.744 3.881.413 1.056.956 1.95 1.85 2.837a7.82 7.82 0 0 0 2.831 1.844c1.019.394 2.181.669 3.881.744 1.706.075 2.25.094 6.594.094s4.888-.019 6.594-.094c1.7-.075 2.869-.35 3.881-.744 1.05-.406 1.944-.956 2.831-1.844s1.438-1.781 1.844-2.831c.394-1.019.669-2.181.744-3.881.075-1.706.094-2.25.094-6.594s-.019-4.887-.094-6.594c-.075-1.7-.35-2.869-.744-3.881a7.506 7.506 0 0 0-1.831-2.844A7.82 7.82 0 0 0 26.482.843C25.463.449 24.301.174 22.601.099c-1.712-.081-2.256-.1-6.6-.1z"/><path d="M16 7.781c-4.537 0-8.219 3.681-8.219 8.219s3.681 8.219 8.219 8.219 8.219-3.681 8.219-8.219A8.221 8.221 0 0 0 16 7.781zm0 13.55a5.331 5.331 0 1 1 0-10.663 5.331 5.331 0 0 1 0 10.663zM26.462 7.456a1.919 1.919 0 1 1-3.838 0 1.919 1.919 0 0 1 3.838 0z"/></symbol><symbol id="icon-twitter" viewBox="0 0 32 32"><path d="M32 7.075a12.941 12.941 0 0 1-3.769 1.031 6.601 6.601 0 0 0 2.887-3.631 13.21 13.21 0 0 1-4.169 1.594A6.565 6.565 0 0 0 22.155 4a6.563 6.563 0 0 0-6.563 6.563c0 .512.056 1.012.169 1.494A18.635 18.635 0 0 1 2.23 5.195a6.56 6.56 0 0 0-.887 3.3 6.557 6.557 0 0 0 2.919 5.463 6.565 6.565 0 0 1-2.975-.819v.081a6.565 6.565 0 0 0 5.269 6.437 6.574 6.574 0 0 1-2.968.112 6.588 6.588 0 0 0 6.131 4.563 13.17 13.17 0 0 1-9.725 2.719 18.568 18.568 0 0 0 10.069 2.95c12.075 0 18.681-10.006 18.681-18.681 0-.287-.006-.569-.019-.85A13.216 13.216 0 0 0 32 7.076z"/></symbol></defs></svg>