<svg id="Layer_1" data-name="Layer 1" xmlns="http://www.w3.org/2000/svg" viewBox="0 0 56.41 62.24"><defs>

</defs>
<title>key</title><g id="Layer_2" data-name="Layer 2"><g id="Layer_2-2" data-name="Layer 2-2"><circle class="cls-1" cx="27.79" cy="34.45" r="27.79"/>
<path  d="M24.3,32.3a6.88,6.88,0,1,0-9.64-8.17,6.88,6.88,0,1,0,8,10L28,39.49l1,1,1.74,1.74,9.14,9.14-4.26,4.27,1.23,1.24.88-.88,1.6,1.61-.87.87,1.24,1.24L44,55.48l1.24,1.24L47,55Zm-.88-2.87h0a3.91,3.91,0,0,1-2,.55,3.77,3.77,0,0,1-1-.14,3.87,3.87,0,1,1-4.76-2.7,3.64,3.64,0,0,1,2,0,4.21,4.21,0,0,1-.12-1,3.85,3.85,0,1,1,5.84,3.3Z" transform="translate(-3.13 -5.39)"/>
<path d="M30.59,42.44l-1.73-1.73L14.93,54.61l1.75,1.74,1.23-1.23,4.27,4.26,1.24-1.24-.87-.87,1.6-1.6.87.87,1.24-1.24L22,51Zm.19-3.67h0l1.74,1.75h0Zm0,0h0l1.74,1.75h0Zm16.47-15a6.88,6.88,0,1,0-9.64,8.17L31,38.59l1.79,1.7,6.53-6.53a6.88,6.88,0,1,0,8-10Zm-2,10.53a3.84,3.84,0,0,1-3.85-3.83v0a4.21,4.21,0,0,1,.12-1,3.37,3.37,0,0,1-1,.15,3.8,3.8,0,0,1-2-.56h0a3.84,3.84,0,1,1,5.72-2.33,3.85,3.85,0,1,1,1,7.56ZM30.78,38.77h0l1.74,1.75h0Zm0,0h0l1.74,1.75h0Z" transform="translate(-3.13 -5.39)"/>

</g></g></svg>
